<?xml version="1.0" encoding="UTF-8" standalone="no"?>
<!DOCTYPE svg PUBLIC "-//W3C//DTD SVG 1.1//EN"
 "http://www.w3.org/Graphics/SVG/1.1/DTD/svg11.dtd">
<!-- Generated by graphviz version 2.42.3 (20191010.1750)
 -->
<!-- Title: snakemake_dag Pages: 1 -->
<svg width="257pt" height="404pt"
 viewBox="0.00 0.00 256.50 404.00" xmlns="http://www.w3.org/2000/svg" xmlns:xlink="http://www.w3.org/1999/xlink">
<g id="graph0" class="graph" transform="scale(1 1) rotate(0) translate(4 400)">
<title>snakemake_dag</title>
<polygon fill="white" stroke="transparent" points="-4,4 -4,-400 252.5,-400 252.5,4 -4,4"/>
<!-- 0 -->
<g id="node1" class="node">
<title>0</title>
<path fill="none" stroke="#59d856" stroke-width="2" d="M113.5,-36C113.5,-36 83.5,-36 83.5,-36 77.5,-36 71.5,-30 71.5,-24 71.5,-24 71.5,-12 71.5,-12 71.5,-6 77.5,0 83.5,0 83.5,0 113.5,0 113.5,0 119.5,0 125.5,-6 125.5,-12 125.5,-12 125.5,-24 125.5,-24 125.5,-30 119.5,-36 113.5,-36"/>
<text text-anchor="middle" x="98.5" y="-15.5" font-family="sans" font-size="10.00">all</text>
</g>
<!-- 1 -->
<g id="node2" class="node">
<title>1</title>
<path fill="none" stroke="#afd856" stroke-width="2" d="M117.5,-108C117.5,-108 79.5,-108 79.5,-108 73.5,-108 67.5,-102 67.5,-96 67.5,-96 67.5,-84 67.5,-84 67.5,-78 73.5,-72 79.5,-72 79.5,-72 117.5,-72 117.5,-72 123.5,-72 129.5,-78 129.5,-84 129.5,-84 129.5,-96 129.5,-96 129.5,-102 123.5,-108 117.5,-108"/>
<text text-anchor="middle" x="98.5" y="-87.5" font-family="sans" font-size="10.00">plot_quals</text>
</g>
<!-- 1&#45;&gt;0 -->
<g id="edge1" class="edge">
<title>1&#45;&gt;0</title>
<path fill="none" stroke="grey" stroke-width="2" d="M98.5,-71.7C98.5,-63.98 98.5,-54.71 98.5,-46.11"/>
<polygon fill="grey" stroke="grey" stroke-width="2" points="102,-46.1 98.5,-36.1 95,-46.1 102,-46.1"/>
</g>
<!-- 2 -->
<g id="node3" class="node">
<title>2</title>
<path fill="none" stroke="#d8ac56" stroke-width="2" d="M122.5,-180C122.5,-180 74.5,-180 74.5,-180 68.5,-180 62.5,-174 62.5,-168 62.5,-168 62.5,-156 62.5,-156 62.5,-150 68.5,-144 74.5,-144 74.5,-144 122.5,-144 122.5,-144 128.5,-144 134.5,-150 134.5,-156 134.5,-156 134.5,-168 134.5,-168 134.5,-174 128.5,-180 122.5,-180"/>
<text text-anchor="middle" x="98.5" y="-159.5" font-family="sans" font-size="10.00">bcftools_call</text>
</g>
<!-- 2&#45;&gt;1 -->
<g id="edge2" class="edge">
<title>2&#45;&gt;1</title>
<path fill="none" stroke="grey" stroke-width="2" d="M98.5,-143.7C98.5,-135.98 98.5,-126.71 98.5,-118.11"/>
<polygon fill="grey" stroke="grey" stroke-width="2" points="102,-118.1 98.5,-108.1 95,-118.1 102,-118.1"/>
</g>
<!-- 3 -->
<g id="node4" class="node">
<title>3</title>
<path fill="none" stroke="#56d8a9" stroke-width="2" d="M67,-324C67,-324 12,-324 12,-324 6,-324 0,-318 0,-312 0,-312 0,-300 0,-300 0,-294 6,-288 12,-288 12,-288 67,-288 67,-288 73,-288 79,-294 79,-300 79,-300 79,-312 79,-312 79,-318 73,-324 67,-324"/>
<text text-anchor="middle" x="39.5" y="-303.5" font-family="sans" font-size="10.00">samtools_sort</text>
</g>
<!-- 3&#45;&gt;2 -->
<g id="edge3" class="edge">
<title>3&#45;&gt;2</title>
<path fill="none" stroke="grey" stroke-width="2" d="M26.21,-287.75C13.64,-269.17 -1.51,-239.16 11.5,-216 20.62,-199.76 36.97,-187.91 53.04,-179.59"/>
<polygon fill="grey" stroke="grey" stroke-width="2" points="54.92,-182.57 62.42,-175.09 51.89,-176.26 54.92,-182.57"/>
</g>
<!-- 7 -->
<g id="node8" class="node">
<title>7</title>
<path fill="none" stroke="#56a9d8" stroke-width="2" d="M94.5,-252C94.5,-252 32.5,-252 32.5,-252 26.5,-252 20.5,-246 20.5,-240 20.5,-240 20.5,-228 20.5,-228 20.5,-222 26.5,-216 32.5,-216 32.5,-216 94.5,-216 94.5,-216 100.5,-216 106.5,-222 106.5,-228 106.5,-228 106.5,-240 106.5,-240 106.5,-246 100.5,-252 94.5,-252"/>
<text text-anchor="middle" x="63.5" y="-231.5" font-family="sans" font-size="10.00">samtools_index</text>
</g>
<!-- 3&#45;&gt;7 -->
<g id="edge9" class="edge">
<title>3&#45;&gt;7</title>
<path fill="none" stroke="grey" stroke-width="2" d="M45.43,-287.7C48.11,-279.9 51.33,-270.51 54.3,-261.83"/>
<polygon fill="grey" stroke="grey" stroke-width="2" points="57.7,-262.7 57.64,-252.1 51.08,-260.43 57.7,-262.7"/>
</g>
<!-- 4 -->
<g id="node5" class="node">
<title>4</title>
<path fill="none" stroke="#d85656" stroke-width="2" stroke-dasharray="5,2" d="M57.5,-396C57.5,-396 21.5,-396 21.5,-396 15.5,-396 9.5,-390 9.5,-384 9.5,-384 9.5,-372 9.5,-372 9.5,-366 15.5,-360 21.5,-360 21.5,-360 57.5,-360 57.5,-360 63.5,-360 69.5,-366 69.5,-372 69.5,-372 69.5,-384 69.5,-384 69.5,-390 63.5,-396 57.5,-396"/>
<text text-anchor="middle" x="39.5" y="-381" font-family="sans" font-size="10.00">bwa_map</text>
<text text-anchor="middle" x="39.5" y="-370" font-family="sans" font-size="10.00">sample: A</text>
</g>
<!-- 4&#45;&gt;3 -->
<g id="edge7" class="edge">
<title>4&#45;&gt;3</title>
<path fill="none" stroke="grey" stroke-width="2" d="M39.5,-359.7C39.5,-351.98 39.5,-342.71 39.5,-334.11"/>
<polygon fill="grey" stroke="grey" stroke-width="2" points="43,-334.1 39.5,-324.1 36,-334.1 43,-334.1"/>
</g>
<!-- 5 -->
<g id="node6" class="node">
<title>5</title>
<path fill="none" stroke="#56d8a9" stroke-width="2" d="M186,-324C186,-324 131,-324 131,-324 125,-324 119,-318 119,-312 119,-312 119,-300 119,-300 119,-294 125,-288 131,-288 131,-288 186,-288 186,-288 192,-288 198,-294 198,-300 198,-300 198,-312 198,-312 198,-318 192,-324 186,-324"/>
<text text-anchor="middle" x="158.5" y="-303.5" font-family="sans" font-size="10.00">samtools_sort</text>
</g>
<!-- 5&#45;&gt;2 -->
<g id="edge4" class="edge">
<title>5&#45;&gt;2</title>
<path fill="none" stroke="grey" stroke-width="2" d="M151.26,-287.87C140.95,-263.46 121.92,-218.43 109.75,-189.64"/>
<polygon fill="grey" stroke="grey" stroke-width="2" points="112.88,-188.04 105.76,-180.19 106.43,-190.76 112.88,-188.04"/>
</g>
<!-- 8 -->
<g id="node9" class="node">
<title>8</title>
<path fill="none" stroke="#56a9d8" stroke-width="2" d="M236.5,-252C236.5,-252 174.5,-252 174.5,-252 168.5,-252 162.5,-246 162.5,-240 162.5,-240 162.5,-228 162.5,-228 162.5,-222 168.5,-216 174.5,-216 174.5,-216 236.5,-216 236.5,-216 242.5,-216 248.5,-222 248.5,-228 248.5,-228 248.5,-240 248.5,-240 248.5,-246 242.5,-252 236.5,-252"/>
<text text-anchor="middle" x="205.5" y="-231.5" font-family="sans" font-size="10.00">samtools_index</text>
</g>
<!-- 5&#45;&gt;8 -->
<g id="edge10" class="edge">
<title>5&#45;&gt;8</title>
<path fill="none" stroke="grey" stroke-width="2" d="M170.12,-287.7C175.64,-279.47 182.35,-269.48 188.43,-260.42"/>
<polygon fill="grey" stroke="grey" stroke-width="2" points="191.35,-262.36 194.02,-252.1 185.54,-258.46 191.35,-262.36"/>
</g>
<!-- 6 -->
<g id="node7" class="node">
<title>6</title>
<path fill="none" stroke="#d85656" stroke-width="2" d="M177,-396C177,-396 140,-396 140,-396 134,-396 128,-390 128,-384 128,-384 128,-372 128,-372 128,-366 134,-360 140,-360 140,-360 177,-360 177,-360 183,-360 189,-366 189,-372 189,-372 189,-384 189,-384 189,-390 183,-396 177,-396"/>
<text text-anchor="middle" x="158.5" y="-381" font-family="sans" font-size="10.00">bwa_map</text>
<text text-anchor="middle" x="158.5" y="-370" font-family="sans" font-size="10.00">sample: B</text>
</g>
<!-- 6&#45;&gt;5 -->
<g id="edge8" class="edge">
<title>6&#45;&gt;5</title>
<path fill="none" stroke="grey" stroke-width="2" d="M158.5,-359.7C158.5,-351.98 158.5,-342.71 158.5,-334.11"/>
<polygon fill="grey" stroke="grey" stroke-width="2" points="162,-334.1 158.5,-324.1 155,-334.1 162,-334.1"/>
</g>
<!-- 7&#45;&gt;2 -->
<g id="edge5" class="edge">
<title>7&#45;&gt;2</title>
<path fill="none" stroke="grey" stroke-width="2" d="M72.15,-215.7C76.14,-207.73 80.95,-198.1 85.37,-189.26"/>
<polygon fill="grey" stroke="grey" stroke-width="2" points="88.61,-190.61 89.95,-180.1 82.35,-187.48 88.61,-190.61"/>
</g>
<!-- 8&#45;&gt;2 -->
<g id="edge6" class="edge">
<title>8&#45;&gt;2</title>
<path fill="none" stroke="grey" stroke-width="2" d="M179.32,-215.88C165.46,-206.81 148.26,-195.55 133.29,-185.76"/>
<polygon fill="grey" stroke="grey" stroke-width="2" points="135.06,-182.74 124.78,-180.19 131.23,-188.59 135.06,-182.74"/>
</g>
</g>
</svg>
