<?xml version="1.0" encoding="UTF-8" standalone="no"?>
<!DOCTYPE svg PUBLIC "-//W3C//DTD SVG 1.1//EN"
 "http://www.w3.org/Graphics/SVG/1.1/DTD/svg11.dtd">
<!-- Generated by graphviz version 2.42.3 (20191010.1750)
 -->
<!-- Title: snakemake_dag Pages: 1 -->
<svg width="257pt" height="260pt"
 viewBox="0.00 0.00 256.50 260.00" xmlns="http://www.w3.org/2000/svg" xmlns:xlink="http://www.w3.org/1999/xlink">
<g id="graph0" class="graph" transform="scale(1 1) rotate(0) translate(4 256)">
<title>snakemake_dag</title>
<polygon fill="white" stroke="transparent" points="-4,4 -4,-256 252.5,-256 252.5,4 -4,4"/>
<!-- 0 -->
<g id="node1" class="node">
<title>0</title>
<path fill="none" stroke="#56d8d8" stroke-width="2" d="M122.5,-36C122.5,-36 74.5,-36 74.5,-36 68.5,-36 62.5,-30 62.5,-24 62.5,-24 62.5,-12 62.5,-12 62.5,-6 68.5,0 74.5,0 74.5,0 122.5,0 122.5,0 128.5,0 134.5,-6 134.5,-12 134.5,-12 134.5,-24 134.5,-24 134.5,-30 128.5,-36 122.5,-36"/>
<text text-anchor="middle" x="98.5" y="-15.5" font-family="sans" font-size="10.00">bcftools_call</text>
</g>
<!-- 1 -->
<g id="node2" class="node">
<title>1</title>
<path fill="none" stroke="#59d856" stroke-width="2" d="M67,-180C67,-180 12,-180 12,-180 6,-180 0,-174 0,-168 0,-168 0,-156 0,-156 0,-150 6,-144 12,-144 12,-144 67,-144 67,-144 73,-144 79,-150 79,-156 79,-156 79,-168 79,-168 79,-174 73,-180 67,-180"/>
<text text-anchor="middle" x="39.5" y="-159.5" font-family="sans" font-size="10.00">samtools_sort</text>
</g>
<!-- 1&#45;&gt;0 -->
<g id="edge1" class="edge">
<title>1&#45;&gt;0</title>
<path fill="none" stroke="grey" stroke-width="2" d="M26.21,-143.75C13.64,-125.17 -1.51,-95.16 11.5,-72 20.62,-55.76 36.97,-43.91 53.04,-35.59"/>
<polygon fill="grey" stroke="grey" stroke-width="2" points="54.92,-38.57 62.42,-31.09 51.89,-32.26 54.92,-38.57"/>
</g>
<!-- 5 -->
<g id="node6" class="node">
<title>5</title>
<path fill="none" stroke="#d6d856" stroke-width="2" d="M94.5,-108C94.5,-108 32.5,-108 32.5,-108 26.5,-108 20.5,-102 20.5,-96 20.5,-96 20.5,-84 20.5,-84 20.5,-78 26.5,-72 32.5,-72 32.5,-72 94.5,-72 94.5,-72 100.5,-72 106.5,-78 106.5,-84 106.5,-84 106.5,-96 106.5,-96 106.5,-102 100.5,-108 94.5,-108"/>
<text text-anchor="middle" x="63.5" y="-87.5" font-family="sans" font-size="10.00">samtools_index</text>
</g>
<!-- 1&#45;&gt;5 -->
<g id="edge7" class="edge">
<title>1&#45;&gt;5</title>
<path fill="none" stroke="grey" stroke-width="2" d="M45.43,-143.7C48.11,-135.9 51.33,-126.51 54.3,-117.83"/>
<polygon fill="grey" stroke="grey" stroke-width="2" points="57.7,-118.7 57.64,-108.1 51.08,-116.43 57.7,-118.7"/>
</g>
<!-- 2 -->
<g id="node3" class="node">
<title>2</title>
<path fill="none" stroke="#d85656" stroke-width="2" stroke-dasharray="5,2" d="M57.5,-252C57.5,-252 21.5,-252 21.5,-252 15.5,-252 9.5,-246 9.5,-240 9.5,-240 9.5,-228 9.5,-228 9.5,-222 15.5,-216 21.5,-216 21.5,-216 57.5,-216 57.5,-216 63.5,-216 69.5,-222 69.5,-228 69.5,-228 69.5,-240 69.5,-240 69.5,-246 63.5,-252 57.5,-252"/>
<text text-anchor="middle" x="39.5" y="-237" font-family="sans" font-size="10.00">bwa_map</text>
<text text-anchor="middle" x="39.5" y="-226" font-family="sans" font-size="10.00">sample: A</text>
</g>
<!-- 2&#45;&gt;1 -->
<g id="edge5" class="edge">
<title>2&#45;&gt;1</title>
<path fill="none" stroke="grey" stroke-width="2" d="M39.5,-215.7C39.5,-207.98 39.5,-198.71 39.5,-190.11"/>
<polygon fill="grey" stroke="grey" stroke-width="2" points="43,-190.1 39.5,-180.1 36,-190.1 43,-190.1"/>
</g>
<!-- 3 -->
<g id="node4" class="node">
<title>3</title>
<path fill="none" stroke="#59d856" stroke-width="2" d="M186,-180C186,-180 131,-180 131,-180 125,-180 119,-174 119,-168 119,-168 119,-156 119,-156 119,-150 125,-144 131,-144 131,-144 186,-144 186,-144 192,-144 198,-150 198,-156 198,-156 198,-168 198,-168 198,-174 192,-180 186,-180"/>
<text text-anchor="middle" x="158.5" y="-159.5" font-family="sans" font-size="10.00">samtools_sort</text>
</g>
<!-- 3&#45;&gt;0 -->
<g id="edge2" class="edge">
<title>3&#45;&gt;0</title>
<path fill="none" stroke="grey" stroke-width="2" d="M151.26,-143.87C140.95,-119.46 121.92,-74.43 109.75,-45.64"/>
<polygon fill="grey" stroke="grey" stroke-width="2" points="112.88,-44.04 105.76,-36.19 106.43,-46.76 112.88,-44.04"/>
</g>
<!-- 6 -->
<g id="node7" class="node">
<title>6</title>
<path fill="none" stroke="#d6d856" stroke-width="2" d="M236.5,-108C236.5,-108 174.5,-108 174.5,-108 168.5,-108 162.5,-102 162.5,-96 162.5,-96 162.5,-84 162.5,-84 162.5,-78 168.5,-72 174.5,-72 174.5,-72 236.5,-72 236.5,-72 242.5,-72 248.5,-78 248.5,-84 248.5,-84 248.5,-96 248.5,-96 248.5,-102 242.5,-108 236.5,-108"/>
<text text-anchor="middle" x="205.5" y="-87.5" font-family="sans" font-size="10.00">samtools_index</text>
</g>
<!-- 3&#45;&gt;6 -->
<g id="edge8" class="edge">
<title>3&#45;&gt;6</title>
<path fill="none" stroke="grey" stroke-width="2" d="M170.12,-143.7C175.64,-135.47 182.35,-125.48 188.43,-116.42"/>
<polygon fill="grey" stroke="grey" stroke-width="2" points="191.35,-118.36 194.02,-108.1 185.54,-114.46 191.35,-118.36"/>
</g>
<!-- 4 -->
<g id="node5" class="node">
<title>4</title>
<path fill="none" stroke="#d85656" stroke-width="2" d="M177,-252C177,-252 140,-252 140,-252 134,-252 128,-246 128,-240 128,-240 128,-228 128,-228 128,-222 134,-216 140,-216 140,-216 177,-216 177,-216 183,-216 189,-222 189,-228 189,-228 189,-240 189,-240 189,-246 183,-252 177,-252"/>
<text text-anchor="middle" x="158.5" y="-237" font-family="sans" font-size="10.00">bwa_map</text>
<text text-anchor="middle" x="158.5" y="-226" font-family="sans" font-size="10.00">sample: B</text>
</g>
<!-- 4&#45;&gt;3 -->
<g id="edge6" class="edge">
<title>4&#45;&gt;3</title>
<path fill="none" stroke="grey" stroke-width="2" d="M158.5,-215.7C158.5,-207.98 158.5,-198.71 158.5,-190.11"/>
<polygon fill="grey" stroke="grey" stroke-width="2" points="162,-190.1 158.5,-180.1 155,-190.1 162,-190.1"/>
</g>
<!-- 5&#45;&gt;0 -->
<g id="edge3" class="edge">
<title>5&#45;&gt;0</title>
<path fill="none" stroke="grey" stroke-width="2" d="M72.15,-71.7C76.14,-63.73 80.95,-54.1 85.37,-45.26"/>
<polygon fill="grey" stroke="grey" stroke-width="2" points="88.61,-46.61 89.95,-36.1 82.35,-43.48 88.61,-46.61"/>
</g>
<!-- 6&#45;&gt;0 -->
<g id="edge4" class="edge">
<title>6&#45;&gt;0</title>
<path fill="none" stroke="grey" stroke-width="2" d="M179.32,-71.88C165.46,-62.81 148.26,-51.55 133.29,-41.76"/>
<polygon fill="grey" stroke="grey" stroke-width="2" points="135.06,-38.74 124.78,-36.19 131.23,-44.59 135.06,-38.74"/>
</g>
</g>
</svg>
